/* XPM */
static char *_3c3432d47674bc1dacb48b270c7e3deaAPUvTIBCZ8drkkW[] = {
/* columns rows colors chars-per-pixel */
"50 50 201 2 ",
"   c black",
".  c #232323",
"X  c #404139",
"o  c #000049",
"O  c #020063",
"+  c #140068",
"@  c #030079",
"#  c #080074",
"$  c #331274",
"%  c #291A7C",
"&  c #34277D",
"*  c #573251",
"=  c #42367E",
"-  c #5D405F",
";  c #5F5F5F",
":  c #464646",
">  c #606060",
",  c #7A7B77",
"<  c #805E4A",
"1  c #888A7D",
"2  c #CD9D70",
"3  c #D6A365",
"4  c #080087",
"5  c #170687",
"6  c #00009A",
"7  c #090099",
"8  c #180096",
"9  c #160097",
"0  c #2A1888",
"q  c #2B1796",
"w  c #362B9B",
"e  c #0C00AB",
"r  c #1500A4",
"t  c #1B01AD",
"y  c #1902A8",
"u  c #0200B3",
"i  c #0200BA",
"p  c #0D00B7",
"a  c #1B00BB",
"s  c #1500B5",
"d  c #2008A0",
"f  c #2A16A6",
"g  c #2508BC",
"h  c #2513BC",
"j  c #331CA6",
"k  c #3A24B7",
"l  c #2D2EB7",
"z  c #4A3C98",
"x  c #4D3AB2",
"c  c #4935B2",
"v  c #524A87",
"b  c #5849AD",
"n  c #5644B3",
"m  c #6655B7",
"M  c #7466BD",
"N  c #0400CA",
"B  c #0C00CB",
"V  c #0C00C3",
"C  c #1500C3",
"Z  c #1E00C1",
"A  c #1800CE",
"S  c #0800D4",
"D  c #1400D4",
"F  c #1E00D5",
"G  c #1A00DD",
"H  c #2100CC",
"J  c #3317C6",
"K  c #2200D3",
"L  c #2200DA",
"P  c #2B09D9",
"I  c #3B1ED8",
"U  c #2512C9",
"Y  c #292DC4",
"T  c #3E22C6",
"R  c #2935C7",
"E  c #3032D3",
"W  c #0800E5",
"Q  c #1A00E4",
"!  c #1500E8",
"~  c #1A00F6",
"^  c #1300FE",
"/  c #1C00FF",
"(  c #0B00F2",
")  c #2300E3",
"_  c #2600EB",
"`  c #2707EA",
"'  c #2300F6",
"]  c #2800F4",
"[  c #2600FD",
"{  c #2A00FE",
"}  c #350DFF",
"|  c #3107FF",
" . c #3C15FF",
".. c #3F17F5",
"X. c #2A24E2",
"o. c #2F38E8",
"O. c #4B33CC",
"+. c #553CD5",
"@. c #421CFF",
"#. c #4E2AFF",
"$. c #4A26FF",
"%. c #5736FF",
"&. c #5E3DFF",
"*. c #4A28E9",
"=. c #3544C9",
"-. c #3B50D8",
";. c #3657E5",
":. c #3B6DFD",
">. c #3D76FE",
",. c #5C44D9",
"<. c #5A43D6",
"1. c #5151CC",
"2. c #634FCD",
"3. c #6A5CC2",
"4. c #6556C7",
"5. c #644CDB",
"6. c #624ED2",
"7. c #715CDC",
"8. c #5966D3",
"9. c #7768C5",
"0. c #7E72C5",
"q. c #7867D4",
"w. c #7A69D6",
"e. c #6067D3",
"r. c #5E43E3",
"t. c #654CE3",
"y. c #6D54EE",
"u. c #694CFC",
"i. c #6041FF",
"p. c #6F52FF",
"a. c #6E54F2",
"s. c #785DFF",
"d. c #7559FF",
"f. c #4C79FA",
"g. c #5D78E8",
"h. c #7D64FB",
"j. c #837DA5",
"k. c #8376C5",
"l. c #8979DB",
"z. c #8067FD",
"x. c #856CFF",
"c. c #8B73FF",
"v. c #8F78FF",
"b. c #937DFF",
"n. c #4F85FF",
"m. c #5686FC",
"M. c #6292FF",
"N. c #679FFF",
"B. c #6E9DFF",
"V. c #75A4FF",
"C. c #8A8A8A",
"Z. c #959691",
"A. c #8884A5",
"S. c #A39EBA",
"D. c #AEAEAE",
"F. c #BDBDBB",
"G. c #BEB7B3",
"H. c #A8A4BC",
"J. c #FFFFAF",
"K. c #FFFFB0",
"L. c #D2CAB4",
"P. c #8D81CA",
"I. c #9589CC",
"U. c #9B94CE",
"Y. c #978BD7",
"T. c #9D92D7",
"R. c #A79DDB",
"E. c #A499DB",
"W. c #A098C8",
"Q. c #ABA3D9",
"!. c #B3ACDB",
"~. c #B0A6D9",
"^. c #B9B3D9",
"/. c #ACA8C8",
"(. c #9681FF",
"). c #9984FF",
"_. c #8BB5FF",
"`. c #96B8FB",
"'. c #BBB4E3",
"]. c #B2AAE0",
"[. c #C3BEDD",
"{. c #C0B9E2",
"}. c #A9D1FF",
"|. c #A8CCFF",
" X c #C6C6C2",
".X c #C5C1DE",
"XX c gray85",
"oX c #CBC7E5",
"OX c #D2CCE3",
"+X c #DAD8E7",
"@X c #E3D9E8",
"#X c #E1DEF1",
"$X c #E4E1E7",
"%X c #E7E6EA",
"&X c #FFFFEF",
"*X c #EBE9F7",
"=X c #F2EFF7",
"-X c #F1EDFF",
";X c #F5F4FA",
":X c #FFFFFF",
">X c #F8F8F7",
/* pixels */
":X:X:X:X:X:X:X:X:X:X:X:X:X:X:X:X:X:X:X:X:X:X:X:X:X:X:X:X:X:X:X:X:X:X:X:X:X:X:X:X:X:X:X:X:X:X:X:X:X:X",
":X:X:X:X:X:X:X:X:X:X:X:X:X:X:X:X:X:X:X:X:X:X:X:X:X:X:X:X:X:X:X:X:X:X:X:X:X:X:X:X:X:X:X:X:X:X:X:X:X:X",
":X:X:X:X:X:X:X:X:X:X:X:X:X:X:X:X:X:X:X:X:X:X:X:X:X:X:X:X:X:X:X:X:X:X:X:X:X:X:X:X:X:X:X:X:X:X:X:X:X:X",
":X:X:X:X:X:X:X:X:X:X:X:X:X:X:X:X:X:X:X:X:X:X:X:X:X:X:X:X:X:X:X:X:X:X:X:X:X:X:X:X:X:X:X:X:X:X:X:X:X:X",
":X:X:X:X:X:X:X:X:X:X:X:X:X:X:X:X:X:X:X:X:X:X:X:X:X:X:X:X:X:X:X:X:X:X:X:X:X:X:X:X:X:X:X:X:X:X:X:X:X:X",
":X:X:X:X:X:X:X:X:X:X:X:X:X:X:X:X:X:X:X:X:X:X:X:X:X:X:X:X:X:X:X:X:X:X:X:X:X:X:X:X:X:X:X:X:X:X:X:X:X:X",
":X:X:X:X:X:X:X:X:X:X:X:X:X:X:X:X:X:X:X:X:X:X:X:X:X:X:X:X:X:X:X:X:X:X:X:X:X:X:X:X:X:X:X:X:X:X:X:X:X:X",
":X:X:X:X:X:X:X:X:X:X:X:X:X:X:X:X:X:X:X:X:X:X:X:X:X:X:X:X:X:X:X:X:X:X:X:X:X:X:X:X:X:X:X:X:X:X:X:X:X:X",
":X:X:X:X:X:X:X:X:X:X:X:X:X:X:X:X:X:X:X:X:X:X:X:X:X:X:X:X:X:X:X:X:X:X:X:X:X:X:X:X:X:X:X:X:X:X:X:X:X:X",
":X:X:X:X:X:X:X:X:X:X:X:X:X:X:X:X:X:X:X:X:X:X:X:X:X:X:X:X:X:X:X:X:X:X:X:X:X:X:X:X:X:X:X:X:X:X:X:X:X:X",
":X:X:X:X:X:X:X:X:X:X:X:X:X:X:X:X:X!.:X:X:X:X:X:X:X:X:X:X:X:X:X!.:X:X:X:X:X:X:X:X:X:X:X:X:X:X:X:X:X:X",
":X:X:X:X:X:X:X:X:X:X:X:X:X:X:X:X:XE.k.:X:X:X:X&X:X:X:X:X:X:X:Xg :X:X:X:X:X:X:X:X:X:X:X:X:X:X:X:X:X:X",
":X:X:X:X:X:X:X:X:X:X:X:X:X:X:X:X:X].O.:X:X:XD.[.:X:X, :X:X:X.XJ :X:X:X:X:X:X:X:X:X:X:X:X:X:X:X:X:X:X",
":X:X:X:X:X:X:X:X:X:X:X:X:X:X:X%XQ.w.O.:X:XXX  . :XF.  : :X:XoXI T.[.:X:X:X:X:X:X:X:X:X:X:X:X:X:X:X:X",
":X:X:X:X:X:X:X:X:X:X:X:X&XI.6.y.&.{ 3.:X:X. ; :X:X:X%X  >X:X:XB  .s.,.q..X:X:X:X:X:X:X:X:X:X:X:X:X:X",
":X:X:X:X:X:X:X:X:X:X:XQ.,.b.).c.*.! ^.:X:X  :X:X:X:X:XC.C.:X:Xh } t.).).h.4.>X:X:X:X:X:X:X:X:X:X:X:X",
":X:X:X:X:X:X:X:X:X:X9.h.).(.x.T U N :X:XXXZ.:X:X*X;X:X:X; :X:XM ~ q u.b.(.).<.+X:X:X:X:X:X:X:X:X:X:X",
":X:X:X:X:X:X:X:X:X9.c.).).h...R ` k :X:XF.:XM % = 0 0 ;XF.:X:XXXW ;.Z &.v.(.).<.$X:X:X:X:X:X:X:X:X:X",
":X:X:X:X:X:X:X:XI.h.).(.h. .Z >.Q 9.:X:X:Xw o v H.H.& o ;X:X:X:XN o.R { i.b.(.).O.:X:X:X:X:X:X:X:X:X",
":X:X:X:X:X:X:X$Xr.).).c.#.{ h :.! U.:X:X{.# :X'.O 0 :X^.5 :X:X:XV X.;.L | p.(.(.).4.:X:X:X:X:X:X:X:X",
":X:X:X:X:X:X:X2.).(.(.i.{ ' R :.D U.:X:X0 oX:X:Xn *X:X:Xq *X:X:XC X.>.a {  .x.(.).a..X:X:X:X:X:X:X:X",
":X:X:X:X:X:X+Xy.).).h.} { L ;.m.D 0.:X*X@ :X:X Xz , :X:XP.z :X:XN E n.h { [ %.(.(.(.q.:X:X:X:X:X:X:X",
":X:X:X:X:X:XY.v.(.(.%.[ { F m.M.s J :Xn 6 :X:XZ.0 X >X:XR.# :XOXS -.B.Y [ [ } z.(.).+.:X:X:X:X:X:X:X",
":X:X:X:X:X:Xq.(.).c.} [ { a _.V.R S &X7 u :X:X1 #   :X:XP.4 !.6.e m._.1.[ { [ &.).(.x..X:X:X:X:X:X:X",
":X:X:X:X:X:X5.(.).u.{ { { C }._.f.s P t D /.:X:XP !.:X:Xk r j ! l B.|.8.' { {  .c.(.b.R.:X:X:X:X:X:X",
":X:X:X:X:X:X,.).b.#.[ { { C `.`.V.=.F Z _ F A.n / L A.b D Z F y m._.`.1.' { { { s.(.b.T.:X:X:X:X:X:X",
":X:X:X:X:X:Xt.).c.} [ { { B $XU.8.N.R r D ^ / [ { { / ^ Q t t f.B.m OXM / ' { { &.).b.Y.:X:X:X:X:X:X",
":X:X:X:X:X:X5.).p.{ ' 8 r i &X:X#X1.N.R < L.$ 9 8 8 $ G.- @ m.M.M :X:Xq.u q p { @.v.b.T.:X:X:X:X:X:X",
":X:X:X:X:X:X5.b.#.{ a :X:X8 oX:X:X+Xg.=.* J.4 t t t 4 J.* 9 _.m :X:X:Xf ^.:XW.~ | s.b.T.:X:X:X:X:X:X",
":X:X:X:X:X:X5.x.` N c ;X:X;Xm :X:X:X!.l + 2 V K L K p 3 # w e.:X:X:X>Xn :X:X+XN B &.b.R.:X:X:X:X:X:X",
":X:X:X:X:X:X7.u.M +Xd :X:X:X!.:X:X:X:Xm @ s L _ _ ) K s 4 q =X:X:X:X~.:X:X:X!.x %XJ c.~.:X:X:X:X:X:X",
":X:X:X:X:X:Xw.O.:X:Xk.:X:X:X:X:X:X:X:X[.4 H _ ] ] ] ` H 7 k.:X:X:X:X:X:X:X:Xk.:X:XI.p..X:X:X:X:X:X:X",
":X:X:X:X:X:Xl.2.:X:X#X=X:X:X:X:X:X:X:X=X6 L ] { ] ] ] ) e ^.:X:X:X:X:X:X:X:XoX:X:XOXI >X:X:X:X:X:X:X",
":X:X:X:X:X:X~.6.:X:X:X:X:X:X:X:X:X:X:X:Xt ) { { { { { _ u :X:X:X:X:X:X:X:X:X:X:X:X+Xg :X:X:X:X:X:X:X",
":X:X:X:X:X:X:Xe :X:X:X:X:X:X:X:X:X:X:X:XP.! { { { { { ' T :X:X:X:X:X:X:X:X:X:X:X:XQ.2.:X:X:X:X:X:X:X",
":X:X:X:X:X:X:Xc oX:X:X:X:X:X:X:X:X:X:X:X:XA [ { { { { ( ^.:X:X:X:X:X:X:X:X:X:X:X:Xj =X:X:X:X:X:X:X:X",
":X:X:X:X:X:X:X:X9.:X:X:X:X:X:X:X:X:X:X:X:X$XS / / / W 9.:X:X:X:X:X:X:X:X:X:X:X:X=X0.:X:X:X:X:X:X:X:X",
":X:X:X:X:X:X:X:X:X:X:X:X:X:X:X:X:X:X:X:X:X:X&XP.q.P.%X:X:X:X:X:X:X:X:X:X:X:X:X:X:X:X:X:X:X:X:X:X:X:X",
":X:X:X:X:X:X:X:X:X:X:X:X:X:X:X:X:X:X:X:X:X:X:X:X:X:X:X:X:X:X:X:X:X:X:X:X:X:X:X:X:X:X:X:X:X:X:X:X:X:X",
":X:X:X:X:X:X:X:X:X:X:X:X:X:X:X:X:X:X:X:X:X:X:X:X:X:X:X:X:X:X:X:X:X:X:X:X:X:X:X:X:X:X:X:X:X:X:X:X:X:X",
":X:X:X:X:X:X:X:X:X:X:X:X:X:X:X:X:X:X:X:X:X:X:X:X:X:X:X:X:X:X:X:X:X:X:X:X:X:X:X:X:X:X:X:X:X:X:X:X:X:X",
":X:X:X:X:X:X:X:X:X:X:X:X:X:X:X:X:X:X:X:X:X:X:X:X:X:X:X:X:X:X:X:X:X:X:X:X:X:X:X:X:X:X:X:X:X:X:X:X:X:X",
":X:X:X:X:X:X:X:X:X:X:X:X:X:X:X:X:X:X:X:X:X:X:X:X:X:X:X:X:X:X:X:X:X:X:X:X:X:X:X:X:X:X:X:X:X:X:X:X:X:X",
":X:X:X:X:X:X:X:X:X:X:X:X:X:X:X:X:X:X:X:X:X:X:X:X:X:X:X:X:X:X:X:X:X:X:X:X:X:X:X:X:X:X:X:X:X:X:X:X:X:X",
":X:X:X:X:X:X:X:X:X:X:X:X:X:X:X:X:X:X:X:X:X:X:X:X:X:X:X:X:X:X:X:X:X:X:X:X:X:X:X:X:X:X:X:X:X:X:X:X:X:X",
":X:X:X:X:X:X:X:X:X:X:X:X:X:X:X:X:X:X:X:X:X:X:X:X:X:X:X:X:X:X:X:X:X:X:X:X:X:X:X:X:X:X:X:X:X:X:X:X:X:X",
":X:X:X:X:X:X:X:X:X:X:X:X:X:X:X:X:X:X:X:X:X:X:X:X:X:X:X:X:X:X:X:X:X:X:X:X:X:X:X:X:X:X:X:X:X:X:X:X:X:X",
":X:X:X:X:X:X:X:X:X:X:X:X:X:X:X:X:X:X:X:X:X:X:X:X:X:X:X:X:X:X:X:X:X:X:X:X:X:X:X:X:X:X:X:X:X:X:X:X:X:X",
":X:X:X:X:X:X:X:X:X:X:X:X:X:X:X:X:X:X:X:X:X:X:X:X:X:X:X:X:X:X:X:X:X:X:X:X:X:X:X:X:X:X:X:X:X:X:X:X:X:X",
":X:X:X:X:X:X:X:X:X:X:X:X:X:X:X:X:X:X:X:X:X:X:X:X:X:X:X:X:X:X:X:X:X:X:X:X:X:X:X:X:X:X:X:X:X:X:X:X:X:X"
};
