/* XPM */
static char *_73fff86865c4a86b1e6aa820e2a302b1Lvj6SXUiON3Rje0[] = {
/* columns rows colors chars-per-pixel */
"50 50 199 2 ",
"   c black",
".  c #090909",
"X  c #000018",
"o  c #1E1E1E",
"O  c #00003F",
"+  c #313131",
"@  c #000049",
"#  c #2A0742",
"$  c #000064",
"%  c #01006C",
"&  c #000074",
"*  c #0A0070",
"=  c #00007E",
"-  c #190876",
";  c #291B7B",
":  c #2F247A",
">  c #462546",
",  c #441D70",
"<  c #5D3A61",
"1  c gray32",
"2  c #56516F",
"3  c #6D547E",
"4  c #676767",
"5  c #787878",
"6  c #9F7F6D",
"7  c #FFE06A",
"8  c #090087",
"9  c #180285",
"0  c #000091",
"q  c #17009B",
"w  c #240997",
"e  c #2C1798",
"r  c #0600A2",
"t  c #1400A4",
"y  c #1A01A5",
"u  c #1400AA",
"i  c #1B01AD",
"p  c #1A08AA",
"a  c #1C10AD",
"s  c #0C00B3",
"d  c #0A00B6",
"f  c #1602B3",
"g  c #1C01BC",
"h  c #2508A8",
"j  c #2203BE",
"k  c #280BBC",
"l  c #341CB3",
"z  c #3F2CA0",
"x  c #3B28B4",
"c  c #473188",
"v  c #4B38AC",
"b  c #442CB4",
"n  c #4C34BB",
"m  c #5B5388",
"M  c #5A4BB7",
"N  c #574CBA",
"B  c #6455B4",
"V  c #6B5DBE",
"C  c #7466B7",
"Z  c #7162BE",
"A  c #7D71BF",
"S  c #0500C7",
"D  c #0F00CA",
"F  c #1600C9",
"G  c #0A00D2",
"H  c #1400D3",
"J  c #1E00D4",
"K  c #1600DE",
"L  c #1A00D9",
"P  c #2406C3",
"I  c #2100CB",
"U  c #2605D5",
"Y  c #3510D6",
"T  c #282AC6",
"R  c #303ECD",
"E  c #2D2DDF",
"W  c #323EDB",
"Q  c #0500EA",
"!  c #1600E0",
"~  c #1800ED",
"^  c #1100FF",
"/  c #1C00FE",
"(  c #2500E4",
")  c #2700EF",
"_  c #330DE6",
"`  c #3513E3",
"'  c #2700F1",
"]  c #2800F4",
"[  c #2400FF",
"{  c #2A00FC",
"}  c #2D31E1",
"|  c #323BE1",
" . c #4328CC",
".. c #4B33CA",
"X. c #543BCA",
"o. c #4428D2",
"O. c #421BFE",
"+. c #3648D7",
"@. c #354AE3",
"#. c #3957E6",
"$. c #3E61EB",
"%. c #5A43C9",
"&. c #595DCA",
"*. c #6B58CC",
"=. c #6A69CA",
"-. c #776AC4",
";. c #7D77CC",
":. c #706BD6",
">. c #6A76D8",
",. c #777DD5",
"<. c #717DDA",
"1. c #5874E9",
"2. c #456DF5",
"3. c #4A74F8",
"4. c #4B7AFF",
"5. c #517EFD",
"6. c #8673AA",
"7. c #887BC7",
"8. c #7283DF",
"9. c #4F81FF",
"0. c #5485FF",
"q. c #5A86FF",
"w. c #5689FF",
"e. c #5B8AFF",
"r. c #5F91FF",
"t. c #7284E2",
"y. c #7A8DE6",
"u. c #7A92EA",
"i. c #638EFF",
"p. c #6591FF",
"a. c #6C95FF",
"s. c #6E9CFF",
"d. c #749CFF",
"f. c #789FFF",
"g. c #6DA2FF",
"h. c #76A2FF",
"j. c #7CA4FF",
"k. c #848484",
"l. c #B99484",
"z. c #8B87A9",
"x. c #9390A8",
"c. c #A09BB8",
"v. c #ADAAAE",
"b. c #BCBDBB",
"n. c #FFFF9C",
"m. c #8E82CA",
"M. c #988ACC",
"N. c #9C92CF",
"B. c #8885D4",
"V. c #9893D7",
"C. c #A297D6",
"Z. c #A59CD5",
"A. c #A19EDA",
"S. c #A8A1CE",
"D. c #ACA4D6",
"F. c #A9A2DB",
"G. c #B2A8D7",
"H. c #B3ACDB",
"J. c #BCB7DA",
"K. c #8198EC",
"L. c #8CA6F3",
"P. c #85ABFF",
"I. c #8BADFE",
"U. c #93AEF6",
"Y. c #8EB3FF",
"T. c #93B5FF",
"R. c #96BAFF",
"E. c #9BBBFF",
"W. c #AEA5E3",
"Q. c #A0BFFF",
"!. c #C1BCDB",
"~. c #C8BDDD",
"^. c #C5BEE8",
"/. c #A5C3FF",
"(. c #A7C8FF",
"). c #AACBFF",
"_. c #ADD1FF",
"`. c #CECECE",
"'. c #D7D9CC",
"]. c #C9C6DF",
"[. c #D8D8D6",
"{. c #FFFFC8",
"}. c #CBC6E7",
"|. c #D4CDEA",
" X c #D7D4E3",
".X c #D9D5EB",
"XX c #DCD9EC",
"oX c #DBD9F2",
"OX c #E6DEEC",
"+X c #E0DEF4",
"@X c #E9E9E8",
"#X c #F0F1EC",
"$X c #E7E5F4",
"%X c #EFECF5",
"&X c #F3EFF4",
"*X c #F7F5F5",
"=X c #FDFEF4",
"-X c #F3F1F9",
";X c #FFFFFF",
/* pixels */
";X;X;X;X;X;X;X;X;X;X;X;X;X;X;X;X;X;X;X;X;X;X;X;X;X;X;X;X;X;X;X;X;X;X;X;X;X;X;X;X;X;X;X;X;X;X;X;X;X;X",
";X;X;X;X;X;X;X;X;X;X;X;X;X;X;X;X;X;X;X;X;X;X;X;X;X;X;X;X;X;X;X;X;X;X;X;X;X;X;X;X;X;X;X;X;X;X;X;X;X;X",
";X;X;X;X;X;X;X;X;X;X;X;X;X;X;X;X;X;X;X;X;X;X;X;X;X;X;X;X;X;X;X;X;X;X;X;X;X;X;X;X;X;X;X;X;X;X;X;X;X;X",
";X;X;X;X;X;X;X;X;X;X;X;X;X;X;X;X;X;X;X;X;X;X;X;X;X;X;X;X;X;X;X;X;X;X;X;X;X;X;X;X;X;X;X;X;X;X;X;X;X;X",
";X;X;X;X;X;X;X;X;X;X;X;X;X;X;X;X;X;X;X;X;X;X;X;X;X;X;X;X;X;X;X;X;X;X;X;X;X;X;X;X;X;X;X;X;X;X;X;X;X;X",
";X;X;X;X;X;X;X;X;X;X;X;X;X;X;X;X;X;X;X;X;X;X;X;X;X;X;X;X;X;X;X;X;X;X;X;X;X;X;X;X;X;X;X;X;X;X;X;X;X;X",
";X;X;X;X;X;X;X;X;X;X;X;X;X;X;X;X;X;X;X;X;X;X;X;X;X;X;X;X;X;X;X;X;X;X;X;X;X;X;X;X;X;X;X;X;X;X;X;X;X;X",
";X;X;X;X;X;X;X;X;X;X;X;X;X;X;X;X;X;X;X;X;X;X;X;X;X;X;X;X;X;X;X;X;X;X;X;X;X;X;X;X;X;X;X;X;X;X;X;X;X;X",
";X;X;X;X;X.XD.C.Z.}.;X;X;X;X;X;X;X;X;X;X;X;X;X;X;X;X;X;X;X;X;X;X;X;X;X;X;X;X;X;X!.Z.C.G.XX;X;X;X;X;X",
";X;XC.b r s g k g g g %.J.;X;X;X;X;X;X;X;X;X;X;X;X;X;X;X;X;X;X;X;X;X;X;X;XD.X.g g g P g s 0 n F.;X;X",
"}.M y 1.i.r.e.w.0.3.+.u P .. X;X;X;X;X;X;X;X;X;X;X;X;X;X;X;X;X;X;X;X;X}. .j i +.4.0.w.e.p.i.1.h B .X",
";X;X;X<.T.P.j.d.a.i.q.w.+.f Y Z.;X;X-X;X;X;X;X;X;X;X;X;X;X;X;X-X;X;Xm.U u #.e.e.i.a.d.P.P.Y.,.;X;X;X",
";X;X;XF./.Q.E.E.T.I.f.i.q.4.u ` H.;X}.N.;X;X;X;X;X;X;X;X;X;X-.%X;XN._ p 5.q.a.f.I.T.E.Q.Q./.H.;X;X;X",
";X;X;XV.(././.(./.Q.E.I.a.q.4.t ` @X;X..;X;X5 4 ;X;Xo [.;X;Xl ;X|._ q 9.q.a.I.E./././././.(.V.;X;X;X",
";X;X;X8.).(./././././.Q.T.d.q.#.g ..=X .;X`.  + ;X@X    ;X;Xj ;Xo.i 2.e.f.T././././././.(.).<.;X;X;X",
";X;Xv =.K.)./././././././.T.d.e.T Y b  .;X+ 5 ;X;X;X;X  b.;XY b Y R e.d.T./././././././.).y.=.M ;X;X",
";X;X;X;XD.L.(.(././././././.I.a.0.p O.x ;X. ;X;X;X;X;X'.1 ;Xk _ a 0.a.T./././././././.(.u.~.;X;X;X;X",
";X;X;X;X;X,.(./././././././.Q.L.e.#.L *.;Xk.;X;X^.^.;X;X4 ;XX.! 2.e.P././././././././.(.B.;X;X;X;X;X",
";X;X;X;X;XB.(./././././././.Q.Q.i.#.! D.@X=XA ; m m - Z.'.;Xm.K $.p.E./././././././.Q.(.V.;X;X;X;X;X",
";X;X;X;X;X>.).)././././././.).Q.s.| G @X;XC @ : z.c.c O F.;X].K @.d./././././././.(.).).<.;X;X;X;X;X",
";X;X;X;XH.=.7.=._././././././.Q.d.E F ;X-X$ ;X=X* - ;X;X% ;X=XH W j./././././././.).&.M.N .X;X;X;X;X",
";X;X;X;X;X;X;XOX<.).Q./././././.h.E I ;XB m.;X;XV.W.;X;XC N.;XD } j.(./././././.(.>.*X;X;X;X;X;X;X;X",
";X;X;X;X;X;X;X;X7.).).)././././.j.} I ;X& oX;X@Xm 2 &X;X|.= ;XG +.P././././.).).).m.;X;X;X;X;X;X;X;X",
";X;X;X;X;X;X;X;XA.=.Z y.)./././.P.#.L S.0 -X;Xv.2 2 b.;X+X& !.L 2.Y./././.).8.Z >.G.;X;X;X;X;X;X;X;X",
";X;X;X;X;X;X;X;XV &X;X7.).)././.Y.3.U w s .X*X`.O X [.;X}.0 e U 0.R.(./.(./.M.;X.X7.;X;X;X;X;X;X;X;X",
";X;X;X;X;X;X;X;XXX;X;X|.U.t.U.).E.e.U i H ;.;X;X*.:.;X;X-.t i I p.E.).L.y.u.&X;X;X.X;X;X;X;X;X;X;X;X",
";X;X;X;X;X;X;X;X;X;X;X.XN $X7.E./.d.T j ( H x.z./ ~ z.x.F F g R j.(.L.N.OXx *X;X;X;X;X;X;X;X;X;X;X;X",
";X;X;X;X;X;X;X;X;X;X;X$X;X;X;X>._.Y.2.t L / / [ { { [ ^ ] j u 5.R._.,.;X;X;X%X;X;X;X;X;X;X;X;X;X;X;X",
";X;X;X;X;X;X;X;X;X;X;X;X;X;X;XV ;.&.g.T > v.c t y y q 6.3 % W s.&.;.-.;X;X;X;X;X;X;X;X;X;X;X;X;X;X;X",
";X;X;X;X;X;X;X;X;X;X;X;X;X;X;X;X;X;X&.@.# {., t h i 0 n.6 % 4.Z ;X;X;X;X;X;X;X;X;X;X;X;X;X;X;X;X;X;X",
";X;X;X;X;X;X;X;X;X;X;X;X;X;X;X;X;X;X;XB $ 7 s F I I d l.< & m.;X;X;X;X;X;X;X;X;X;X;X;X;X;X;X;X;X;X;X",
";X;X;X;X;X;X;X;X;X;X;X;X;X;X;X;X;X;X;X|.% w J ( ) U U h 8 9 ;X;X;X;X;X;X;X;X;X;X;X;X;X;X;X;X;X;X;X;X",
";X;X;X;X;X;X;X;X;X;X;X;X;X;X;X;X;X;X;X$X8 f ( ' ] ' ( J q z ;X;X;X;X;X;X;X;X;X;X;X;X;X;X;X;X;X;X;X;X",
";X;X;X;X;X;X;X;X;X;X;X;X;X;X;X;X;X;X;X;X0 F ) { { ] ' ( f C ;X;X;X;X;X;X;X;X;X;X;X;X;X;X;X;X;X;X;X;X",
";X;X;X;X;X;X;X;X;X;X;X;X;X;X;X;X;X;X;X;Xb J ] { { { { ) D G.;X;X;X;X;X;X;X;X;X;X;X;X;X;X;X;X;X;X;X;X",
";X;X;X;X;X;X;X;X;X;X;X;X;X;X;X;X;X;X;X;XN.! { { { { { ] S ;X;X;X;X;X;X;X;X;X;X;X;X;X;X;X;X;X;X;X;X;X",
";X;X;X;X;X;X;X;X;X;X;X;X;X;X;X;X;X;X;X;X;XD { { { { { / ..;X;X;X;X;X;X;X;X;X;X;X;X;X;X;X;X;X;X;X;X;X",
";X;X;X;X;X;X;X;X;X;X;X;X;X;X;X;X;X;X;X;X;XJ.Q { { { [ G #X;X;X;X;X;X;X;X;X;X;X;X;X;X;X;X;X;X;X;X;X;X",
";X;X;X;X;X;X;X;X;X;X;X;X;X;X;X;X;X;X;X;X;X;X!.P G H %.@X;X;X;X;X;X;X;X;X;X;X;X;X;X;X;X;X;X;X;X;X;X;X",
";X;X;X;X;X;X;X;X;X;X;X;X;X;X;X;X;X;X;X;X;X;X;X;X;X;X;X;X;X;X;X;X;X;X;X;X;X;X;X;X;X;X;X;X;X;X;X;X;X;X",
";X;X;X;X;X;X;X;X;X;X;X;X;X;X;X;X;X;X;X;X;X;X;X;X;X;X;X;X;X;X;X;X;X;X;X;X;X;X;X;X;X;X;X;X;X;X;X;X;X;X",
";X;X;X;X;X;X;X;X;X;X;X;X;X;X;X;X;X;X;X;X;X;X;X;X;X;X;X;X;X;X;X;X;X;X;X;X;X;X;X;X;X;X;X;X;X;X;X;X;X;X",
";X;X;X;X;X;X;X;X;X;X;X;X;X;X;X;X;X;X;X;X;X;X;X;X;X;X;X;X;X;X;X;X;X;X;X;X;X;X;X;X;X;X;X;X;X;X;X;X;X;X",
";X;X;X;X;X;X;X;X;X;X;X;X;X;X;X;X;X;X;X;X;X;X;X;X;X;X;X;X;X;X;X;X;X;X;X;X;X;X;X;X;X;X;X;X;X;X;X;X;X;X",
";X;X;X;X;X;X;X;X;X;X;X;X;X;X;X;X;X;X;X;X;X;X;X;X;X;X;X;X;X;X;X;X;X;X;X;X;X;X;X;X;X;X;X;X;X;X;X;X;X;X",
";X;X;X;X;X;X;X;X;X;X;X;X;X;X;X;X;X;X;X;X;X;X;X;X;X;X;X;X;X;X;X;X;X;X;X;X;X;X;X;X;X;X;X;X;X;X;X;X;X;X",
";X;X;X;X;X;X;X;X;X;X;X;X;X;X;X;X;X;X;X;X;X;X;X;X;X;X;X;X;X;X;X;X;X;X;X;X;X;X;X;X;X;X;X;X;X;X;X;X;X;X",
";X;X;X;X;X;X;X;X;X;X;X;X;X;X;X;X;X;X;X;X;X;X;X;X;X;X;X;X;X;X;X;X;X;X;X;X;X;X;X;X;X;X;X;X;X;X;X;X;X;X",
";X;X;X;X;X;X;X;X;X;X;X;X;X;X;X;X;X;X;X;X;X;X;X;X;X;X;X;X;X;X;X;X;X;X;X;X;X;X;X;X;X;X;X;X;X;X;X;X;X;X",
";X;X;X;X;X;X;X;X;X;X;X;X;X;X;X;X;X;X;X;X;X;X;X;X;X;X;X;X;X;X;X;X;X;X;X;X;X;X;X;X;X;X;X;X;X;X;X;X;X;X"
};
