/* XPM */
static char *_16c62014f564be5df953f20fa44fcdc4WWUskpP00WEB6ad[] = {
/* columns rows colors chars-per-pixel */
"50 50 8 1 ",
"  c #FFFFFF",
". c #FFFFFF",
"X c #5B6EE1",
"o c #595652",
"O c #43403E",
"+ c #696A6A",
"@ c #847E87",
"# c white",
/* pixels */
"                                                  ",
"                                                  ",
"                                                  ",
"                                                  ",
"                                                  ",
"                                                  ",
"       ...........................    ......      ",
"     ............................... ........     ",
"    X..XXooooooOOOOOOOOooooooooooo....oooXX..X    ",
"   XX..XOooooooooooooooooooooooooOOo.oOOoOX..XX   ",
"   XX..XOOo+++@@@+++@@+++++++++++ooOOooooOX..XX   ",
"   XX..XOOo+@@@@@@@@@@@@@@@@@@@@@+oOo+++oOX..XX   ",
"    XX..XOo++@@@@@@@@@@@@@@@@@@@@+oo++@+oOX..XX   ",
"     XX..XOo+++@@@@@@@@@@@@@@++@@+oo+@@+oOX..XX   ",
"    XX..XOOOooo+@@@@@@@@@@@@+++@+oOo@@@@oOX..XX   ",
"    XX..XOooooOO+@@@@@@@@@++oo++oOO@@@@@oOX..XX   ",
"   XX..XOOo+++oOo++++ooooooooooooo@@@@@@oOX..XX   ",
"   XX..XOo+@@@+oo+oooOoooooooooo++@@@@@+oOX..XX   ",
"   XX..XOo+@@@@+oo+Ooo++++++++++o+@@@@@+oOX..XX   ",
"   XX..XOo+@@+++oo+++o+@@@@@@@+Oo+@@@@@+oOX..XX   ",
"   XX..XOo+@@++ooo+@@++@@@@@@@+oo+@@@@@@oOX..XX   ",
"   XX..XOo+@@@+ooo@@@@+@@@@+@+ooOo@@@@@@oOX..XX   ",
"   XX..XOo+@@@@+oo@@@+++@@@+++++oo@@@@@+oOX..XX   ",
"   XX..XOo+@@@@+oo@@@@@+++++@@@+oo@@@@@+oOX..XX   ",
"   XX..XOo+@@@@@oo@@@@@+oo+@@@@+oo@@@@@+oOX..XX   ",
"   XX..XOo+@@@@@oo+@@@@+oo+@@@@+oo@@@@@+oOX..XX   ",
"   XX..XOo+@@@@@oo+@@@+++++@@@@+oo+@@@@+oOX..XX   ",
"   XX..XOo+@@@@@oo+++++@@@+++@@+oo+@@@@+oOX..XX   ",
"   XX..XOo@@@@@@oOooo++@@@@++@@+ooo+@@@+oOX..XX   ",
"   XX..XOo@@@@@@+ooo+@@@@@@+o+++ooo++@@+oOX..XX   ",
"   XX..XOo+@@@@@+oOo+@@@@@@+o+o+oo+++@@+oOX..XX   ",
"   XX..XOo+@@@@@+oO+++++++++ooOOoo+@@@@+oOX..XX   ",
"   XX..XOo+@@@@@+oooooooooooOoooooo+@@@+oOX..XX   ",
"   XX..XOo@@@@@++oooooooooooo+++++Oo+++oOOX..XX   ",
"   XX..XOo@@@@+oOo++oo++@@@@@@@@@++OooooOX..XX    ",
"   XX..XOo@@@@+Oo+@+++@@@@@@@@@@@@@+ooOOOX..XX    ",
"   XX..XOo+@@+oO+@@++@@@@@@@@@@@@@@@++oOX..XX     ",
"   XX..XOo+@@+oO+@@@@@@@@@@@@@@@@@@@@@+oOX..XX    ",
"   XX..XOo+++oOO+@@@@@@@@@@@@@@@@@@@@@@oOOX..XX   ",
"   XX..XOo+ooOOoo+++++++++++@@+++@@@++++OOX..XX   ",
"   XX..XOoOOOOOOOooooooooooooooooooooooooOX..XX   ",
"   XX..XXOOOXXXXOOOOOOOOOOOOOOOOOOOOOOOOOXX..XX   ",
"   XX..XXXXX....XXXXXXXXXXXXXXXXXXXXXXXXXXX..XX   ",
"   XX........X...............................XX   ",
"    XX......XXXX............................XX    ",
"     XXXXXXXX XXXXXXXXXXXXXXXXXXXXXXXXXXXXXXX     ",
"    XXXXXXXX    XXXXXXXXXXXXXXXXXXXXXXXXXXXX      ",
"                                                  ",
"                                                  ",
"                                                  "
};
