/* XPM */
static char *_667a58231ed41f4faa210c3d6f3b636tOLzi3jJJnGi8Snf[] = {
/* columns rows colors chars-per-pixel */
"50 50 160 2 ",
"   c #621410",
".  c #8B0D0E",
"X  c #98050D",
"o  c #9C0C0B",
"O  c #990E11",
"+  c #961617",
"@  c #9D1813",
"#  c #A70405",
"$  c #AC0703",
"%  c #A20806",
"&  c #AC0907",
"*  c #AC070B",
"=  c #A30D0E",
"-  c #AC0C0C",
";  c #B60307",
":  c #B10906",
">  c #B7060C",
",  c #BE070A",
"<  c #B40A0B",
"1  c #BB0C0A",
"2  c #A1120C",
"3  c #AA120D",
"4  c #A00F12",
"5  c #AE0E13",
"6  c #B20B10",
"7  c #BB0B10",
"8  c #AE1915",
"9  c #A3121A",
"0  c #A61E1C",
"q  c #AE181A",
"w  c #B61012",
"e  c #BF1110",
"r  c #BD1419",
"t  c #A21A24",
"y  c #AF1C22",
"u  c #B81F22",
"i  c #A12223",
"p  c #AF2026",
"a  c #AC2B2F",
"s  c #B22424",
"d  c #B82128",
"f  c #A2312B",
"g  c #BC302F",
"h  c #AB2E32",
"j  c #A93331",
"k  c #A93538",
"l  c #B33334",
"z  c #BC3134",
"x  c #B43D3C",
"c  c #C40401",
"v  c #CC0505",
"b  c #C20B07",
"n  c #CB0C04",
"m  c #C20A0D",
"M  c #CD0C0D",
"N  c #D50407",
"B  c #DB0403",
"V  c #D60906",
"C  c #DE0906",
"Z  c #DA070C",
"A  c #D40B0B",
"S  c #DC0B0B",
"D  c #C9110E",
"F  c #D11009",
"G  c #C30C12",
"H  c #C80E11",
"J  c #D40B12",
"K  c #DD0E16",
"L  c #CE1112",
"P  c #D01116",
"I  c #D91111",
"U  c #D7121B",
"Y  c #E50202",
"T  c #ED0202",
"R  c #E30905",
"E  c #EC0A05",
"W  c #E5040A",
"Q  c #EC040A",
"!  c #E20B0A",
"~  c #ED090B",
"^  c #F10102",
"/  c #F20A03",
"(  c #F20309",
")  c #F30A0B",
"_  c #E20C13",
"`  c #EB0E1D",
"'  c #C9383D",
"]  c #E72D2E",
"[  c #C43F42",
"{  c #B54443",
"}  c #BE4240",
"|  c #B64F48",
" . c #A94851",
".. c #BC5358",
"X. c #A4726B",
"o. c #C64643",
"O. c #C54C4C",
"+. c #CB4E54",
"@. c #CD5959",
"#. c #C2645F",
"$. c #C55C61",
"%. c #D85D62",
"&. c #C76365",
"*. c #CA6364",
"=. c #D2706D",
"-. c #DC706D",
";. c #D96A71",
":. c #DB7273",
">. c #FE6567",
",. c #E66E77",
"<. c #E77575",
"1. c #E6777E",
"2. c #ED767D",
"3. c #DA7E81",
"4. c #EC8484",
"5. c #E5898A",
"6. c #EF8C8F",
"7. c #F0868A",
"8. c #FA8E8C",
"9. c #EC9695",
"0. c #EF9C96",
"q. c #F2979C",
"w. c #FFA5A3",
"e. c #FFAFAE",
"r. c #FFACB0",
"t. c #E4B0B4",
"y. c #FEB5B3",
"u. c #FFB8B3",
"i. c #FFB2B8",
"p. c #FFBDBC",
"a. c #FFC4BF",
"s. c #FFBFC3",
"d. c #FFC3C6",
"f. c #FFCBC7",
"g. c #FFC2C8",
"h. c #FFCBCB",
"j. c #FFD3CD",
"k. c #FFC6D0",
"l. c #FFD3D3",
"z. c #FFD6DA",
"x. c #FFDADD",
"c. c #FFE2D7",
"v. c #FFE2DE",
"b. c #FFE5E5",
"n. c #FFEAE6",
"m. c #FFE5ED",
"M. c #FFECEB",
"N. c #FFF0E3",
"B. c #FFF3ED",
"V. c #FEF9EE",
"C. c #FFEEF3",
"Z. c #EEFBF3",
"A. c #F6F5F4",
"S. c #FFF4F3",
"D. c #F5FDF5",
"F. c #FCFCF5",
"G. c #F2F6F9",
"H. c #FEF6FB",
"J. c #F6FDFD",
"K. c #FEFEFE",
/* pixels */
"K.K.K.K.K.K.K.K.K.K.K.K.K.K.K.K.K.K.J.K.S.K.K.H.H.F.X.n.F.H.J.K.K.K.K.K.K.K.K.K.K.K.K.K.K.K.K.K.K.K.",
"K.K.K.K.K.K.K.K.K.K.K.K.K.K.K.K.K.K.K.K.K.K.A.F.S.t.  v.S.F.K.K.K.K.K.K.K.K.K.K.K.K.K.K.K.K.K.K.K.K.",
"K.K.K.K.K.K.K.K.K.K.K.K.K.K.K.K.K.J.K.K.K.K.J.H.C. .+ 8.H.K.Z.J.K.J.K.K.K.K.K.K.K.K.K.K.K.K.K.K.K.K.",
"K.K.K.K.K.K.K.K.K.K.K.K.K.K.K.K.K.K.J.K.J.F.K.S.k.t r z C.A.J.Z.J.J.J.K.K.K.K.K.K.K.K.K.K.K.K.K.K.K.",
"K.K.K.K.K.K.K.K.K.K.K.K.K.K.K.K.K.K.J.K.J.Z.A.S.2.r F < s.F.F.J.J.K.J.K.K.K.K.K.K.K.K.K.K.K.K.K.K.K.",
"K.K.K.K.K.K.K.K.K.K.K.K.K.K.K.K.F.K.K.J.K.J.S.n.p M ! b &.S.B.F.K.K.K.K.K.K.K.K.K.K.K.K.K.K.K.K.K.K.",
"K.K.K.K.K.K.K.K.K.K.K.K.K.K.K.K.K.K.K.J.K.K.C.0.& C Y F 0 j.S.H.H.K.J.K.K.K.K.K.K.K.K.K.K.K.K.K.K.K.",
"K.K.K.K.K.K.K.K.K.K.K.K.K.K.K.K.K.H.K.K.K.H.b.f D R Y S < <.C.F.H.H.K.K.K.K.K.K.K.K.K.K.K.K.K.K.K.K.",
"K.K.K.K.K.K.K.K.K.K.K.K.K.K.K.K.K.K.J.H.K.H.r.- S T T Y A q x.F.K.H.K.K.K.K.K.K.K.K.K.K.K.K.K.K.K.K.",
"K.K.K.K.K.K.K.K.K.K.K.K.K.K.K.K.K.G.J.H.H.C.[ M R T Y ( W ; 5.S.F.D.J.K.J.J.K.J.K.F.K.K.K.K.K.K.K.K.",
"K.K.K.K.K.K.K.K.K.K.K.K.K.K.K.K.J.J.H.A.S.p.6 _ T ^ / T Q J i x.V.D.D.K.H.K.G.K.K.K.K.K.K.K.K.K.K.K.",
"K.K.K.K.K.K.K.K.K.K.K.K.K.K.K.K.K.J.K.F.B.| H ~ / ^ ^ T ( _ * 4.V.V.F.J.J.K.K.K.J.K.K.K.K.K.K.K.K.K.",
"K.K.K.K.K.K.K.K.K.K.K.K.K.K.K.K.J.F.K.S.u.2 V T ^ ^ T Q Q B A u j.V.V.D.K.K.K.K.J.J.K.K.K.J.K.K.K.K.",
"K.K.K.K.K.K.K.K.K.K.K.K.K.K.K.K.K.K.S.M.o.D C T ^ T Q Q W Q Y m :.B.V.F.K.K.H.K.K.K.K.K.K.K.K.K.K.K.",
"K.K.K.K.K.K.K.K.K.K.K.K.K.K.K.K.K.H.H.p.- V R T / T Q Q Y Q ) A 9 g.V.F.F.K.K.H.K.K.K.K.K.J.K.K.K.K.",
"K.K.K.K.K.K.K.K.K.K.K.K.K.K.K.K.K.S.C.k M Y E T T T Q Q ( T ^ R G +.N.V.H.H.H.K.J.K.K.K.K.K.K.K.K.K.",
"K.K.K.J.K.K.K.K.K.K.J.K.H.F.J.H.K.C.e.* S Q Q T T T T Q ( ( T T C $ u.V.H.H.J.K.J.J.K.K.K.K.K.K.K.K.",
"J.K.J.J.K.H.K.K.J.K.J.K.K.F.K.C.H.m.z M R T Q T Q ( Q T ( T T T / n j n.S.K.K.G.J.K.K.K.K.K.K.K.K.K.",
"K.K.K.K.K.K.K.K.K.K.K.J.J.K.G.H.C.q.* S Y T Q Q ( ^ ^ T T Q T T Y A 5 7.S.F.J.K.K.K.K.K.K.K.K.K.K.K.",
"K.K.K.K.K.K.K.K.K.K.J.K.H.K.K.C.m.h L Y E T Y T ^ ^ ^ T Q T T T Q Z J y x.K.H.K.F.F.K.K.K.K.K.K.K.K.",
"F.K.K.K.K.K.K.K.K.K.F.F.K.H.K.H.1.* V T E Y T T ^ ^ T T T T T Q Y W W m :.S.H.J.K.K.K.K.K.K.K.K.K.K.",
"K.F.K.K.K.K.K.K.K.K.F.F.K.H.C.x.9 J W T T T ( ( ^ ^ T T T T T Q Q Q T C 9 h.H.K.F.F.K.K.H.K.K.K.K.K.",
"K.K.K.K.K.K.K.K.K.F.D.J.J.H.S.@.H W ( T T T T ^ T T T T ^ ( T Q ( ( ^ R , %.n.K.K.F.K.K.K.K.K.K.K.K.",
"F.K.K.K.K.K.K.K.K.K.F.F.K.C.s.4 Z ( ^ T ^ ^ ^ ^ T T T T ^ ^ Q T ( ( ^ T Z 5 h.F.K.K.K.K.K.K.K.K.K.K.",
"K.K.K.J.K.K.K.K.H.K.G.D.S.C.O.b Q ^ ^ ^ ^ ^ ( T T T T ^ ^ ^ T T Q T T ^ Y m *.B.F.K.K.F.K.K.J.K.K.K.",
"K.F.K.K.K.K.K.K.K.K.K.H.S.u.& ! T ^ ^ ^ ^ T ( Q T T T ^ ^ ^ T Q T T ^ T Q S O l.S.H.F.K.J.J.K.K.K.K.",
"K.K.J.K.K.K.H.H.J.K.K.H.S.{ c T T T ^ ^ ( ^ T T T T T ^ ^ ^ T T T T T Q E B > 2.S.F.H.K.K.J.K.K.K.K.",
"J.K.K.K.K.K.K.H.K.K.J.F.e.= ! ^ T T ^ ( ^ T T ^ T T T T ^ ^ T T T T Y T ^ R I d b.F.F.K.K.J.K.K.K.K.",
"K.K.K.K.J.J.K.K.K.J.J.A.@.D W T T T T ^ ^ T ^ T ( T T T ^ ^ ^ T T T T T Y Q W > u.F.H.K.K.K.K.K.K.K.",
"K.K.K.K.K.J.K.H.K.K.D.B.s A Y T ^ T T T T T ^ ^ T T ^ ^ ^ ^ T T ^ T Q Q T Y ( H =.B.H.K.K.K.K.K.K.K.",
"K.K.F.F.K.J.K.J.F.F.F.b.- R Y Q ^ T T T T ^ ^ ^ T ^ ^ ^ ^ ^ T T T T ( Y Q Q Y H x b.H.K.J.K.K.K.K.K.",
"K.K.K.F.K.K.K.F.K.F.V.f.e Y Q Y T T T T T ^ T T T ^ ( ^ T T T ^ ^ ^ T ( Q T ~ n 0 x.C.K.J.K.K.K.K.K.",
"H.K.K.K.K.J.K.J.F.F.S.y.G Q Y W T T T T T T T T ^ ^ ^ T T ^ ^ ^ ^ ^ ^ ( T T E A 8 f.F.J.K.K.K.K.K.K.",
"K.K.K.K.K.J.J.K.F.V.F.y.1 Q T T T T ( ^ ^ T T T ^ T T ^ T T ^ ^ ^ T ^ T T T T A 3 a.S.K.J.K.K.K.K.K.",
"K.K.K.K.K.K.K.K.K.F.F.y.1 T ^ ^ ^ ^ ^ ^ ^ ^ ^ ^ ( T T T T T T T T T T Q ^ T E A 2 f.S.K.K.F.K.K.K.K.",
"K.K.K.K.K.K.K.K.F.F.K.p.1 E T ^ ^ ^ ^ ^ ^ ^ ^ ^ T T T ( ^ T T T Y Y T Q ^ ^ T A @ j.H.K.K.K.K.K.K.K.",
"K.K.K.K.K.K.K.K.K.K.H.z.$ R T T T T T ^ ^ ^ ^ T ^ ^ ^ ^ ^ ^ Y Q T T T T ( ( ^ F i b.H.K.K.K.K.K.K.K.",
"K.K.K.K.K.K.K.K.K.K.H.C.3 B R Y T T T T T T ^ ^ ^ ^ ^ ^ ^ ( Q Q T T T ^ ( ^ ( M { S.H.K.F.F.K.K.K.K.",
"K.K.J.F.K.K.K.K.K.K.K.C.' v R Y ^ ( T ( T ^ ^ T T ^ ^ ^ ^ ^ T T T T T ^ ^ ( T m 3.H.K.K.F.F.K.K.K.K.",
"K.K.J.K.K.K.K.K.K.K.K.C.,.1 C T ^ ^ ( T ( T T ^ ^ T ^ ^ ^ ^ T T Y T ^ ^ ^ T W 6 i.H.K.F.K.K.K.K.K.K.",
"K.K.J.K.K.K.K.K.K.F.K.H.g.9 Z ^ T Y ( T T Q ^ T T T T T T ^ T T T E T ^ T R H p m.H.K.F.K.K.J.K.K.K.",
"J.K.K.K.K.K.J.J.D.F.G.H.S...M Q E T E T Y T T T T T Y T E T T T T Y E ^ Y ! 6 ;.C.K.J.F.F.K.K.K.K.K.",
"K.K.K.K.K.K.K.K.F.F.K.J.H.g.= I B E T T T T Y Q T T Q T Y T T T T ^ ( T Q D . x.H.K.J.F.K.K.K.K.K.K.",
"K.K.K.K.K.K.K.K.K.F.J.J.H.S.4.% F C T ( T T T E ( T T T Y E E T ^ / ( Q I - 9.S.H.J.K.F.K.K.K.K.K.K.",
"K.K.K.K.K.K.K.K.F.K.J.K.K.S.M.#.- N ~ ( ( / Y T T T T ( T T E T ( Y ( ` 7 x S.F.G.J.K.K.K.K.K.K.K.K.",
"K.K.K.K.K.K.K.K.K.H.K.J.J.F.S.b.O.w J W ( T E T ( ( ( Q Q T T T W ! _ G l c.S.K.J.J.K.K.K.K.K.K.K.K.",
"K.K.K.H.K.K.K.K.K.K.K.F.F.F.K.H.M.#.4 U Y ^ T ^ ^ ^ ^ T T T ^ T B M * } c.B.H.H.J.K.K.J.K.K.K.F.K.K.",
"J.K.K.K.K.K.K.K.K.K.K.F.F.D.G.K.B.B.6.X J R T ^ ^ ^ T ^ T Y Q C G o -.n.n.F.H.H.F.J.J.J.K.K.K.K.K.K.",
"K.K.K.K.K.K.K.K.K.K.K.K.K.K.K.K.F.F.H.s.h > R T T ^ T ( T ~ v # { a.S.S.F.K.K.K.K.K.K.K.K.K.K.K.K.K.",
"K.K.K.K.K.K.K.K.K.K.K.K.K.K.K.K.K.K.S.m.z.>.N Y T ( T ^ T Y ] w.b.B.F.J.J.H.K.F.K.K.K.K.K.K.K.K.K.K."
};
