/* XPM */
static char *result[] = {
/* columns rows colors chars-per-pixel */
"50 50 211 2 ",
"   c #020202",
".  c #0B0000",
"X  c #0B0902",
"o  c #03020D",
"O  c #09090B",
"+  c #09070A",
"@  c #100D08",
"#  c #180801",
"$  c #0E100F",
"%  c #14110D",
"&  c #040114",
"*  c #090216",
"=  c #05011C",
"-  c #0A031C",
";  c #0D0A1C",
":  c #0C0B10",
">  c #10081D",
",  c #100F14",
"<  c #0F1012",
"1  c #121313",
"2  c #1A1A16",
"3  c #161618",
"4  c #1B1D1C",
"5  c #171916",
"6  c #220E07",
"7  c #24160E",
"8  c #2E1C18",
"9  c #342216",
"0  c #0B0124",
"q  c #0E0921",
"w  c #0C022B",
"e  c #070222",
"r  c #100726",
"t  c #12032D",
"y  c #140A2D",
"u  c #1A1824",
"i  c #0F0134",
"p  c #120232",
"a  c #15033A",
"s  c #1A073D",
"d  c #1B0A3E",
"f  c #170939",
"g  c #191432",
"h  c #231B32",
"j  c #23173F",
"k  c #241D3B",
"l  c #232324",
"z  c #272825",
"x  c #2A262D",
"c  c #2A2B2A",
"v  c #372B26",
"b  c #373028",
"n  c #2F2C35",
"m  c #272436",
"M  c #312B37",
"N  c #2F3032",
"B  c #35363B",
"V  c #3D3D3E",
"C  c #393531",
"Z  c #43433B",
"A  c #190642",
"S  c #1D0A43",
"D  c #1E0A4A",
"F  c #1B0649",
"G  c #210B4C",
"H  c #210945",
"J  c #230E51",
"K  c #271744",
"L  c #2B2343",
"P  c #2F2943",
"I  c #342C44",
"U  c #33264C",
"Y  c #372D4B",
"T  c #363347",
"R  c #3E3746",
"E  c #372A52",
"W  c #352456",
"Q  c #3E3A55",
"!  c #433F4E",
"~  c #433D52",
"^  c #453A5D",
"/  c #47385C",
"(  c #493D64",
")  c #443761",
"_  c #4F4E4E",
"`  c #464548",
"'  c #55524D",
"]  c #4C455C",
"[  c #494553",
"{  c #524E5F",
"}  c #585D59",
"|  c #635448",
" . c #6A5751",
".. c #4E4666",
"X. c #57476E",
"o. c #53496E",
"O. c #575463",
"+. c #5B5668",
"@. c #4F4371",
"#. c #5C5771",
"$. c #605F6F",
"%. c #685E7A",
"&. c #605776",
"*. c #6C6D6A",
"=. c #67646B",
"-. c #72716F",
";. c #6B657A",
":. c #736E7D",
">. c #7B7B76",
",. c #7C7C7C",
"<. c #74717C",
"1. c #83847F",
"2. c #94827A",
"3. c #665F80",
"4. c #665782",
"5. c #6E6384",
"6. c #6F628D",
"7. c #726D83",
"8. c #726581",
"9. c #7D7B82",
"0. c #7D798B",
"q. c #737083",
"w. c #7E7296",
"e. c #817B8C",
"r. c #817E85",
"t. c #847B95",
"y. c #858589",
"u. c #898887",
"i. c #978F8B",
"p. c #8B869B",
"a. c #8A8896",
"s. c #918D9D",
"d. c #91829F",
"f. c #94929C",
"g. c #979899",
"h. c #A79D9B",
"j. c #A6A19D",
"k. c #918BA2",
"l. c #9A97A5",
"z. c #9B9AA2",
"x. c #9C94AC",
"c. c #9B90B2",
"v. c #9787B4",
"b. c #A09DA6",
"n. c #A59AB4",
"m. c #A59BBE",
"M. c #A2A1AB",
"N. c #A8A7AF",
"B. c #ABADAC",
"V. c #A5A7A4",
"C. c #A6A2B4",
"Z. c #A8A4B7",
"A. c #B2AFB7",
"S. c #B4B3BB",
"D. c #B8B5B6",
"F. c #C4BBB4",
"G. c #ADA5C3",
"H. c #B3ACC4",
"J. c #BAAECD",
"K. c #B5B2C1",
"L. c #BBB6C4",
"P. c #BDBAC5",
"I. c #BBB5CC",
"U. c #BBB7CB",
"Y. c #BCB2D4",
"T. c #C4BECE",
"R. c #C4BED5",
"E. c #C5B9DA",
"W. c #C8BED6",
"Q. c #C5C3C6",
"!. c #C5C3CA",
"~. c #C8CAC7",
"^. c #CED3CD",
"/. c #C6C1D5",
"(. c #CBCBD2",
"). c #CEC5DD",
"_. c #CDC8D8",
"`. c #D1CBDB",
"'. c #D0C6DE",
"]. c #DADAD8",
"[. c #D6D4DE",
"{. c #E6DBD9",
"}. c #CDC4E1",
"|. c #D5CCE5",
" X c #D8CFEE",
".X c #D5D3E3",
"XX c #DFD6E5",
"oX c #DDDBE2",
"OX c #DDD7EA",
"+X c #DEDDEB",
"@X c #DBD0F0",
"#X c #E4DEED",
"$X c #E2DCF2",
"%X c #EEDEFF",
"&X c #E6E2EB",
"*X c #E8E7E8",
"=X c #F7FAEF",
"-X c #FCF3EC",
";X c #E9E2F3",
":X c #ECEAF1",
">X c #EDE6FD",
",X c #EBE7FA",
"<X c #F2EDFC",
"1X c #F1EAFB",
"2X c #F5F6F4",
"3X c #F7F9F3",
"4X c #FBFBF6",
"5X c #F5F2FD",
"6X c #FCF6FE",
"7X c #FEFEFE",
"8X c #F7F8F7",
/* pixels */
"7X7X7X7X4X4X7X7X7X7X7X7X7X7X7X7X7X7X7X7X7X7X7X7X7X7X7X7X6X4X4X4X7X3X7X7X7X7X4X4X7X7X7X7X7X7X7X7X7X7X",
"7X7X7X7X7X7X7X7X7X7X7X7X7X7X7X7X7X7X7X7X7X7X7X7X4X7X7X7X7X7X4X7X8X7X7X7X7X7X4X7X4X4X7X7X7X7X7X7X7X7X",
"7X7X7X7X7X4X7X7X7X7X7X7X7X7X7X7X7X7X7X7X4X7X7X7X7X7X7X7X7X7X7X7X7X7X6X7X7X7X7X7X7X7X7X7X7X7X7X7X7X7X",
"7X7X7X7X8X8X7X7X7X7X7X7X7X7X7X7X7X6X7X4X4X7X7X7X7X7X7X7X7X7X7X7X7X6X7X7X7XS.(.7X6X7X7X7X6X7X4X4X7X7X",
"7X7X7X7X6X6X7X7X7X7X7X7X4X7X7X4X4X7X7X4X4X7X7X7X7X7X7X8X7X7X7X7X8X7X7X4XoXn u 6X7X7X7X7X7X6X4X4X7X7X",
"7X7X7X4X6X7X7X7X7X7X7X7X7X7X4X7X8X4X8X7X7X7X7X7X7X6X*X7X7X7X4X4X6X7X7X4Xl 7XoX& 7X7X7X7X7X7X7X7X7X7X",
"7X7X4X4X4X7X7X7X7X7X7X7X7X7X7X7X4X4X7X6X7X7X7X7X7XP.o o & +X7X8X4X7X7X*Xg.7X7Xl.m 7X7X7X8X7X7X8X7X7X",
"7X8X3X4X4X7X7X4X7X7X7X7X7X7X7X7X4X4X7X7X7X7X7X4X7XO.[..XP k.7X8X7X7X7X7Xf.7Xb.7X= #X7X7X4X4X8X7X7X7X",
"7X4X8X7X7X7X7X7X7X7X7X7X7X7X7X7X7X8X6X7X7X7X4X7X7Xx 7X7Xx.T 7X7X7X7X7X7X+.7XA.S.T 7X6X7X4X4X7X7X7X7X",
"7X7X8X7X7X7X7X7X7X7X7X7X7X7X6X7X4X7X7X6X7X7X4X7X].;.7Xl.$X- 7X7X6X#Xe.O.P.:.`.& ,X7X7X7X7X7X6X7X7X7X",
"7X6X7X7X6X7X7X7X7X4X7X4X7X7X7X7X7X7X7X7X7X7X7X4X7Xx $X8. X= OX7XL 0 0 - 0 Y.x.~ 6X7X6XoX7X7X6X7X7X7X",
"7X8X7X7X7X7X7X7X7X7X7X7X7X7X6XR.K.P.I.W.$X6X7X7X7X7X;.H.0 - %X>X= X.}.5X..= = 5X#.& o   M.7X7X7X7X7X",
"7X7X7X4X7X4X7X7X7X7X7X$Xt.^ = 0 y r y e 0 w ^ n.6X6X4.0 t <X7Xt.* 6X7X6X7X'.$.6Xn #X*XS.o 7X5X7X7X7X",
"7X7X7X7X4X7X4X6X6XW.Y e y r - t r g e i i f f p t K a W 7X6X6Xh - 7X6X7X'.6X6X7Xn 7X7X7Xm q.7X7X7X7X",
"7X7X7X4X4X7X7X7X5.w f y 0 e.6Xy.r.7X7XT.&.0 s D F A G d X.J.%Xr W v.) t 0 / 7X7X~ 6X<.P..X& 5X7X7X7X",
"7X7X7X7X7X7X6X&.w S i E 7X7X6X@ 2 4X7X7X6X7X6.p G G H H p t t H A a A s d w H.6XI 6X7Xa.7X; z.7X7X7X",
"7X7X7X7X7X6XX.p S f / 6X7X7XQ.    3X7X7X7X7X6X).i J F H S H H G F F D F S y 0 7X7.T 7Xs.7X& 5X7X7X7X",
"7X7X7X7X6X/ p S d K 6X7X8X7XV   X ^.7X7X6X7X7X7XU A W w s a a a i i A i 6XY y ^ 6X'.; '.n.* 6X7X7X7X",
"7X7X7X6XU f S s 0 >X7X7X7XB.    < B.7X7X7X6X7X7XI.0 ^ 6X&.8.t.n.L.XXw.e %.7X0 0 J.6X5X7X] O.7X7X4X7X",
"7X7X6XI f s F p x.7X7X7X=.        c 7X7X7X1 h Z.7Xh ; >X6X6X7X7X7X7X7Xq ; 7XE.e 0 7X6X6X- H.6X7X7X7X",
"7X6Xh y S S a / 6X6X7X7XZ 4     o l   ].7Xy.Y.g 7XK.= 0.7X6X7X7X7X7X7XC.e 3.6X;.w @.c.&.t ( E.6X7X7X",
"6X1X0 d S A t 7X7X7X7X7X*.X 4     <   *X].M.7X0 7XK.- l.7X7X7X7X(.7X7X7XL = 1X6XK w r r w p t - T.7X",
"7X7X) a S 0 W.7X7X7X7X4Xu.  5 4     $ 7X7Xf.<X= 7X#.= 7X7X7X7Xa.; .X7X6XU.; !.7X,Xq ] x.@Xt.%.* A.7X",
"7X7Xm.i t 5.7X6X7X7X7X7XB.    z +   4 7X7X7X7X& = w 7.7X7X6X7Xm 7X$.7X7Xk.& 7X3X7X7X7X_.I k.$Xr [.7X",
"7X7X6Xr I 7X7X7X7X7X7X7XD.      c   $ 7X7X7X7X9...= 1X7X7X7XS.p.7Xf.7X7X..Q 7X7X7X7X7XQ 7X/.n.= 7X7X",
"7X7X7XR $X6X7X7X7X8X7X7XA.  o   4 O 5 2X7X7X4X7X6X7X7X7X4X7X<.T.N.z.7X7Xe p.7X7X7X7X7X[ <X5X= Z.7X7X",
"7X8X7X7X7X7X6X7X7X7X7X7Xz.        N l ~.4X4X4X7X7X7X7X4X7X7X#X! 7X7X7X6X& OX7X7X7X7X7X(.& u 7.7X7X7X",
"7X7X4X4X6X7X7X7X7X7X8X7X*.  o   O N 5 V.4X7X4X7X6X7X7X7X4X4X6Xx `.#XL.- = 7X7X7X7X7X7X6X5XO.7X6X7X7X",
"7X4X4X7X-X7X7X7X7X7X7X4X' u c O O z 3 i.7X7X7X7X7X7X7X7X7X7X7Xp.* * - h q 6X7X7X7X6X7X6X8X7X8X7X7X7X",
"7X7X4X=X7X4X7X7X7X7X7X7Xu.O O ` _ < O y.7X7X7X7X7X7X7X7X7X7X5X7X7X|.J.|.I H.0.:X7X7X7X7X7X2X7X7X7X7X",
"7X7X7X=X4X7X7X7X7X7X7X7X>.X b   5 z , r.7X7X7X7X7X7X7X7X4X4X7X6X7X7X7Xk.o.Z.l.b.7X7X7X7X2X4X7X7X7X7X",
"7X7X7X4X4X7X7X7X7X7X7X7X,.3         3 9.7X7X7X7X7X7X7X7X7X7X7X7X7X7X7X+X- H.s.D.7X7X7X7X7X7X7X7X7X7X",
"7X7X7X7X7X7X7X7X7X7X7X7X9.  c   Z z   ,.7X7X7X7X7X7X7X7X7X7X4X7X7X7X7X7Xu n.O.~.7X7X7X7X7X7X7X7X7X7X",
"4X7X4X7X7X7X7X7X7X7X4X7X>.  C % .   . 1.7X7X7X7X7X7X7X7X7X7X7X7X7X7X7X7XN.o B :X7X7X7X7X7X7X7X7X7X7X",
"7X7X7X7X7X7X7X7X7X7X7X7Xi.. . 7 7 . . i.7X7X7X7X7X7X7X7X7X7X7X7X7X7X7X7X7X7X7X7X7X7X7X7X7X7X7X7X7X7X",
"7X7X7X7X7X7X7X7X7X7X4X7XF.. 2.6 6 2.# D.4X7X7X7X7X7X7X7X7X7X7X7X7X7X7X7X7X7X7X7X7X7X7X7X7X7X7X7X7X7X",
"7X7X7X7X7X7X7X7X7X7X4X7X4Xb | 9 v  .9 {.7X7X7X7X7X7X7X7X7X7X7X7X7X7X7X7X7X7X7X7X7X7X7X7X7X7X7X7X7X7X",
"7X7X7X7X7X7X7X7X7X3X7X4X-X. | . .  .. h.7X7X8X7X7X7X7X7X7X7X7X7X7X7X7X7X7X7X7X6X7X7X7X7X7X7X7X7X7X7X",
"7X7X7X7X7X7X7X7X7X7X7X7Xj.. . .   .   ' 7X7X7X8X7X7X7X7X7X7X7X7X7X7X7X8X7X7X7X7X7X7X7X7X7X7X7X7X7X7X",
"7X7X4X7X7X7X7X7X7X7X7X7X-.  C . c >.  c 7X7X7X7X7X7X7X7X7X7X7X7X7X7X7X7X7X7X7X7X7X7X7X7X7X7X7X7X7X7X",
"7X4X4X7X7X7X7X7X7X7X7X7X` $ 7X7X4X7X}   7X7X7X7X7X7X7X7X7X7X7X7X7X7X4X7X7X7X7X7X7X7X7X7X7X7X7X7X7X7X",
"7X7X7X7X7X7X7X7X7X7X8X7Xu 8X8X7X7X8X7XB 7X7X7X7X7X7X7X4X7X7X7X7X7X7X7X7X7X7X7X7X7X7X7X7X7X7X7X7X7X7X",
"7X7X7X7X7X7X7X7X7X7X7X8XS.7X7X7X7X7X7X6X7X7X7X7X7X7X4X7X4X7X7X7X7X7X7X7X4X7X7X7X7X7X7X7X7X7X7X7X7X7X",
"7X7X7X7X7X7X7X7X7X7X7X7X7X7X7X8X7X7X6X6X7X8X8X8X7X7X7X7X4X7X7X7X7X7X7X7X7X7X7X7X7X7X7X7X7X7X7X7X7X7X",
"7X7X7X7X7X6X8X7X7X7X7X7X8X7X7X7X7X7X7X7X7X7X7X7X7X7X7X4X7X7X7X7X7X6X4X7X7X4X7X7X7X7X7X7X7X7X7X7X7X7X",
"7X7X7X7X4X3X7X7X7X7X7X7X7X7X7X7X7X7X7X7X7X6X7X7X7X4X7X7X7X7X7X7X7X8X7X7X7X4X7X7X7X7X7X7X7X7X4X7X7X7X",
"7X7X7X8X3X4X7X7X7X7X7X7X7X7X7X7X7X8X7X7X7X7X7X7X7X7X7X7X7X7X7X7X7X6X7X7X7X7X7X7X7X7X7X7X7X7X4X7X7X7X",
"7X7X7X8X2X4X7X7X7X7X7X4X7X7X7X7X8X2X7X7X8X7X7X7X7X7X7X7X7X7X7X7X6X8X7X7X7X7X7X7X7X7X7X7X7X4X4X7X7X7X",
"7X7X6X8X4X7X7X7X7X7X7X7X7X7X7X7X8X7X7X7X7X7X7X7X7X7X7X7X7X7X7X8X7X7X7X7X7X7X7X7X7X7X7X7X7X7X7X7X7X7X",
"7X7X8X8X7X7X7X7X7X7X7X7X7X7X7X7X8X7X8X7X7X7X7X7X7X7X7X7X7X7X7X8X8X7X7X7X7X7X7X7X7X7X7X7X8X7X8X7X7X7X"
};
