/* XPM */
static char *ec8f8c19c77b4f54914b9baa47fe58bdGJqr7d6TtUn1iZNN[] = {
/* columns rows colors chars-per-pixel */
"50 50 240 2 ",
"   c #030300",
".  c #0E0000",
"X  c #3F372A",
"o  c #453003",
"O  c #534828",
"+  c #766F57",
"@  c #993E00",
"#  c #B73C11",
"$  c #AE3D05",
"%  c #C1370E",
"&  c #CD3818",
"*  c #D63B1D",
"=  c #DD3E24",
"-  c #BA4914",
";  c #BE7818",
":  c #D2411D",
">  c #C7591A",
",  c #C1460D",
"<  c #C2661D",
"1  c #DC4A25",
"2  c #D16C2F",
"3  c #937D4B",
"4  c #EC7940",
"5  c #D6AD1F",
"6  c #C88220",
"7  c #E28236",
"8  c #D5B523",
"9  c #DABC2D",
"0  c #D5B52F",
"q  c #D5AC3C",
"w  c #DCB332",
"e  c #D4B33D",
"r  c #DCB53A",
"t  c #DDBA35",
"y  c #CAAB35",
"u  c #E5BA38",
"i  c #DCC22B",
"p  c #DEC837",
"a  c #E5C738",
"s  c #E8CC35",
"d  c #F2EC2E",
"f  c #EFE837",
"g  c #EEEB3C",
"h  c #EDE638",
"j  c #F3EB35",
"k  c #F6E73B",
"l  c #F3EA3B",
"z  c #F6E739",
"x  c #ECEB2F",
"c  c #88836D",
"v  c #BEAC7A",
"b  c #EE9148",
"n  c #D2AE41",
"m  c #CEB649",
"M  c #D5B446",
"N  c #DCB946",
"B  c #D1B956",
"V  c #D6AE57",
"C  c #F5AA4D",
"Z  c #EDBC4B",
"A  c #E9B945",
"S  c #F4B746",
"D  c #FAB647",
"F  c #F5BB45",
"G  c #FABA46",
"H  c #F5B64B",
"J  c #FBB64B",
"K  c #F5BB4C",
"L  c #FBBB4C",
"P  c #EDB75C",
"I  c #E8B959",
"U  c #F4B550",
"Y  c #FBB553",
"T  c #F5BC52",
"R  c #FBBC52",
"E  c #F3BC5B",
"W  c #FBBB5A",
"Q  c #FDB65A",
"!  c #FFA257",
"~  c #DBB366",
"^  c #D0AE71",
"/  c #D9B977",
"(  c #D5AB63",
")  c #FFA664",
"_  c #E9B864",
"`  c #FFB665",
"'  c #FFBC63",
"]  c #FFBB6A",
"[  c #F4BB63",
"{  c #E2BE79",
"}  c #DFC043",
"|  c #CFCF5D",
" . c #D5C658",
".. c #DBD45A",
"X. c #D8D859",
"o. c #EDC146",
"O. c #EEC24B",
"+. c #E8C846",
"@. c #F4C245",
"#. c #F3C14B",
"$. c #FAC24C",
"%. c #F8C045",
"&. c #E9D44A",
"*. c #F6DA46",
"=. c #E8C754",
"-. c #F3C353",
";. c #FDC053",
":. c #FBC45A",
">. c #E3DB5D",
",. c #E3D45B",
"<. c #F6DE5A",
"1. c #DEE15E",
"2. c #ECE645",
"3. c #EDEA43",
"4. c #EEEA4B",
"5. c #E7E84F",
"6. c #F3EA42",
"7. c #F9EB43",
"8. c #F2E64A",
"9. c #F2EB4B",
"0. c #FBEC4B",
"q. c #F7E745",
"w. c #FFF14C",
"e. c #F4F147",
"r. c #ECE554",
"t. c #ECEA54",
"y. c #E4E25C",
"u. c #ECE55C",
"i. c #ECEB5A",
"p. c #E4E657",
"a. c #F3EB54",
"s. c #FEED53",
"d. c #F2EA5B",
"f. c #F5E759",
"g. c #F2F056",
"h. c #ECF051",
"j. c #CECC63",
"k. c #D6C864",
"l. c #D3D365",
"z. c #DCD465",
"x. c #DBDC63",
"c. c #D5D26B",
"v. c #D9D56B",
"b. c #D8DA69",
"n. c #D3CE73",
"m. c #D5CC77",
"M. c #CFD177",
"N. c #D5D374",
"B. c #DAD374",
"V. c #DBDB74",
"C. c #D6D47E",
"Z. c #DAD37A",
"A. c #DCDC7C",
"S. c #CDD175",
"D. c #EDC866",
"F. c #F6C265",
"G. c #E5DE62",
"H. c #E5DB6D",
"J. c #EBD768",
"K. c #ECC475",
"L. c #E4DD7B",
"P. c #E5D773",
"I. c #FBD06B",
"U. c #DFE162",
"Y. c #EDEA63",
"T. c #ECEB6A",
"R. c #E8E466",
"E. c #F5EA63",
"W. c #FDF263",
"Q. c #E6E576",
"!. c #F1E577",
"~. c #B9BA90",
"^. c #D7BA82",
"/. c #D9CB86",
"(. c #D4D483",
"). c #DAD584",
"_. c #DDDE8C",
"`. c #D9D78B",
"'. c #CBCB98",
"]. c #DDDC95",
"[. c #D4D39C",
"{. c #DDDD98",
"}. c #D0D595",
"|. c #CACB87",
" X c #E9C787",
".X c #E2DD83",
"XX c #E3DC8C",
"oX c #EADA8C",
"OX c #E1DC94",
"+X c #E2DC97",
"@X c #F8D795",
"#X c #ECCD90",
"$X c #E5E183",
"%X c #E6E586",
"&X c #F5E687",
"*X c #E9E79A",
"=X c #F6E897",
"-X c #FFFE9C",
";X c #C5C4A9",
":X c #D9D7AA",
">X c #D5D2AF",
",X c #E3DEAA",
"<X c #F2DDA4",
"1X c #F6DEB2",
"2X c #EBE4A3",
"3X c #E9E6A9",
"4X c #F7EBAB",
"5X c #F7F4A6",
"6X c #ECEBB2",
"7X c #EFEEB8",
"8X c #F5ECB8",
"9X c #FDFDB5",
"0X c #F3F2BB",
"qX c #FCFDBD",
"wX c #FCF4BA",
"eX c #EFF2BD",
"rX c #CECEC1",
"tX c #EDEFC0",
"yX c #F8EFCB",
"uX c #F5F4C4",
"iX c #FDF6C3",
"pX c #FCFBC3",
"aX c #FFFECB",
"sX c #FAF7CD",
"dX c #FFFED4",
"fX c #FFFEDC",
"gX c #F6F4D7",
"hX c #E8ECD6",
"jX c #ECEAE3",
"kX c #EFF0E2",
"lX c #FEFEE4",
"zX c #FDFEEC",
"xX c #F8F9EB",
"cX c #FAF6F4",
"vX c #F6FBF6",
"bX c #FDFDF5",
"nX c #FCF7FB",
"mX c #F6FCFB",
"MX c #FDFDFC",
"NX c #F5F6F7",
/* pixels */
"MXMXMXbXMXMXMXMXMXMXMXvXMXbXMXMXMXMXMXMXMXzXfX;XzXbXbXbXvXmXMXMXMXmXMXvXMXbXMXMXMXmXMXMXMXMXMXMXMXMX",
"MXMXMXMXMXMXMXMXMXMXMXMXcXMXMXMXMXMXnXMXMXzX0X'.fXzXMXMXMXmXMXMXbXvXvXMXMXbXMXMXMXmXmXMXMXMXMXMXMXMX",
"MXMXMXMXMXMXMXMXMXMXnXMXMXvXMXMXbXMXMXMXMXlXXXQ.,XzXcXnXMXMXMXbXzXhXzXzXMXnXMXnXMXMXMXmXnXMXMXnXMXMX",
"MXMXMXMXMXMXMXMXMXbXMXjXlXzXbXMXmXMXMXMXMXdXz.T.(.fXbXMXnXMXbXzX7X~.zXbXMXMXnXMXMXMXMXMXMXMXMXMXMXMX",
"MXMXMXMXMXMXMXMXMXcXMXrX[.dXbXmXbXmXMXmXbX0XX.4.H.5XlXMXMXmXlX0Xc.A.fXmXMXMXmXbXMXMXMXbXMXMXMXMXMXMX",
"MXMXmXmXMXMXMXMXMXMXbXgX].M.uXzXbXbXMXvXzX{.r.9.i.V.fXMXmXzXqXS.i.x.fXMXnXmXbXbXmXmXbXMXMXMXMXMXMXMX",
"MXnXmXvXMXnXMXMXnXMXcXfXc.T.v.2XlXMXnXzXfXC.t.l 6.>.fXbXbXuXj.i.4...fXMXMXMXMXvXMXmXmXbXbXMXMXMXMXMX",
"nXMXmXmXMXMXMXbXMXnXMXfXQ.Y.Y.R.XXdXzXlX9Xb.a.l 7.u.2XfXaXn.g.g q.>.fXMXmXMXbXMXmXMXmXbXMXMXMXMXMXMX",
"nXMXMXbXMXMXbXMXMXMXmXlX4XP.t.a.i.k.iXaX$XY.3.e.7.f.XX9X| d.6.z 6.>.fXMXMXmXvXMXMXMXcXvXMXMXMXMXMXMX",
"MXMXbXMXvXnXMXbXMXMXMXzXfXZ.f.f 7.f.m.5XR.&.p s i a B  .E.0.k k 6...fXMXMXbXMXbXbXlXzXzXcXMXMXmXMXMX",
"bXbXMXbXMXbXbXbXMXMXvXbXfX+Xi.l 3.a.E.q r A A $.o.#.-.Z r i *.s.6.1.dXMXmXMXbXlXfXdX6X'.xXMXMXmXMXMX",
"MXmXMXvXjX;X:XsXfXfXlXfXfX6Xu.3.s.p t @.K ;.T L L K H K -.#.r 0 8.R.sXlXlXfX8X<X_.m.*X[.zXvXbXMXMXMX",
"mXmXMXMXMX:X%XR.z.).2XpXfXaX..f.0 #.#.K L L K Z ;.T R R F F $.O.e  .9X*XN.l.>.u.r.T.(.lXzXMXbXMXMXMX",
"MXMXMXnXbXdXl.u.t.E.R.V.).*X,.r #.T K R L L L ;.F T R R L L F K -.M k.!.t.3.9.6.9.X.0XbXcXMXMXMXMXMX",
"MXMXMXMXzXfXpXZ.d.3.9.9.d.f.y #.K ;.T L J D L L R L R H L D L L L F e <.0.l l 9.R..XfXMXMXMXMXnXMXMX",
"MXMXnXMXbXbXzX3XG.3.j j 7.8 $.L R F L L L L L L J J L R L L G L G L #.0 0.z z a.N.dXzXvXMXMXMXMXMXMX",
"MXMXMXbXbXMXmXlXZ.d.6.k a @.F L R L K L L L R L G D T $.F G L L L u $.O.i 0.9...wXzXbXMXMXbXMXMXMXMX",
"MXMXMXMXMXMXMXcXaXc.d.s.u F F L R L F F T R L L L L F K T T R H L L #.-.u f.R..XlXMXMXbXMXMXMXMXMXMX",
"MXMXMXMXMXMXMXMXzX7XH.+.A L L L R T L F T U L S L Y K T I _ [ W R H U T L I Z.dXzXbXMXMXvXMXMXMXMXMX",
"nXnXMXnXMXMXMXMXxXfX=Xm -.L J J H U [ I ~ _ E L R W F.V oX@X( [ W R W R F q =XdXlXzXbXMXMXMXMXvXMXMX",
"MXMXnXMXMXbXbXxXlXiXP.n :.U L L L [ ^.dXlX1X~ W U [ ^ iXlXfXgX/ [ R Y R K Z ,.b.{.dXzXbXnXnXvXMXMXMX",
"MXMXMXMXcXlXlXfX{.B.D.-.K T L L J ~ fXbX;XlX X[ R P  XfX+ X xX#XI ;.H R ;.K p E.Q.(.{.uXfXlXzXbXMXMX",
"MXMXnXMXbXfX3Xj.y.W.+.O.K L K L T K.lX    c 8X_ Q P  X>X    + 2X:.H L J J F i 9.4.t.i.>.v.=XdXzXbXMX",
"MXbXbXlX0X).H.d.6.l a #.F $.%.L T ~ yX    O @X` R [ ~ 1X.   ^ { I L L L L a s 7.l l f 3.Y.A.}.>XbXMX",
"mXbXdX_.X.h.t.6.j 7.a @.T R D %.D E  X3 o ^._ Y R T E ~ K.^ K._ T G L D L %.i 0.k l 6.d.Q.(.:XhXbXMX",
"mXxX~.%XT.4.l j j l a -.R R L G G H D.K. X_ Q Y L L S W D._ E :.$.L F ;.D %.a r.d.R...B.*XdXfXzXMXMX",
"mXbXgX[.N.Y.9.g f 7.+.-.W J L L L L T P W W T S L T L A E W U T L D L J R K N Q.Z.+XaXlXzXzXbXMXMXMX",
"bXMXbXfXaX%Xl.p.t.a.=.Z T R R J J J L Y Q Y R R L F :.W Q C 6 ;.L L R R L :.y 5XaXlXzXMXnXMXMXmXMXMX",
"cXnXbXbXzXfXfX6X).P.J.I T L R T R J :.< b F.[ W -.T E ] ) @ C H L L R J L u &.| aXzXzXbXMXMXMXbXMXMX",
"MXMXbXvXmXNXMXzXfXwX&Xn T R H ;.L R L H @ 2 ) ` ] ] ) 2 # - ' R L J R L L u 8.T.|.dXlXbXMXMXvXbXMXMX",
"MXMXvXMXMXMXMXmXxXfX5Xm -.F L L R R F :.< - % : 1 & & & % b R J J J $.A K u 0.3.i.l.aXzXcXMXMXMXMXMX",
"MXMXMXmXMXMXmXmXMXfXB.E.r F L L T ;.L L ] > % * = = = % 4 ` H L L R F #.+.s l j g i.n.pXfXzXbXMXMXMX",
"MXmXmXMXMXMXMXMXbX0X1.9.i %.F L R L L J Y ' 7 > # , > ! ` Q L L R L K #.8 w.j d j g u.c.qXlXzXmXMXMX",
"MXMXbXMXMXMXMXxXfX(.5.l 7.5 $.R K L J L L L F.` ] Q ' W U R S L D R T N <.f.a.3.4.d.Y.Q.|.sXzXvXMXMX",
"MXMXMXMXMXnXMXzX5Xx.h.g k *.u #.T H R F $.L H Y J J R R R L L F L K I B oXOXXXXXA.A._.].,X~.bXMXMXMX",
"MXMXMXMXMXMXMXfXN.h.3.h z 0.p A T :.H L #.T R R L L R R J L L F %.+.e H.aXfXlXdXdXdXfXfXlXzXMXMXMXMX",
"MXMXbXMXmXbXzX7Xy.3.j l l g W.=.A E W R T W F F L L R R L L L %.u i 9.u.3XlXzXzXlXzXzXMXcXzXMXMXMXMX",
"MXMXMXMXMXzXfXC.i.g 3.2.a.u.l.&X=.w F $.T T F G L R K K F $.K r s w.g 5.C.fXzXmXbXMXMXMXMXcXMXmXMXMX",
"MXbXMXMXMXzX5Xx.h.4.E.v.).8XlXaX>.0.i 8 o.#.K $.K ;.-.Z =.e m E.9.j j 8.R.4XzXMXMXMXbXMXMXMXmXMXMXMX",
"MXMXMXMXMXzX(.Q.U.X..XqXfXbXmXfXX.l k 0.&.} M n w w w +.=.J.5Xc.u.4.l 0.r.V.lXmXmXmXMXMXMXMXMXmXMXMX",
"MXMXcXMXMXhX'.[.7XdXlXzXbXMXMXsXy.f j 6.9.p.&XL.f.7.w.8.Y.Q.dXfX+Xn.E.9.9.z.uXMXMXMXMXMXMXMXMXMXMXMX",
"MXMXbXbXcXkXgXzXbXMXMXMXbXMXMXtXi.j g e.y.V.aX].d.f j 9.R.*XzXbXzXpXN.G.d.T.{.lXMXMXMXMXMXMXMXMXMXMX",
"MXMXbXbXbXbXMXMXMXMXMXMXbXbXbX3Xr.j g Y.`.fXlXiX>.z z 8.b.qXlXbXbXxXlX6XN.Q.Z.wXzXMXMXMXMXMXMXMXMXMX",
"MXMXMXbXbXMXMXnXMXmXmXMXmXbXzX3Xt.h d.k.fXbXMXfXv.0.6.t.N.dXlXbXvXmXmXzXdX`.).3XlXMXmXmXMXMXMXMXMXMX",
"bXMXMXMXMXMXMXMXmXMXMXMXMXzXfX*Xt.9.c.pXzXMXMXzX*XR.2.d._.fXzXMXMXbXmXbXzXlXyX~.bXbXmXmXMXMXMXMXMXMX",
"mXMXMXMXMXMXMXMXmXMXMXMXMXbXdX_.Y...wXzXbXbXMXzXaXB.t.y.3XzXbXbXMXvXbXmXvXMXMXMXbXmXMXMXMXMXMXMXMXMX",
"MXMXMXMXMXbXMXMXMXMXMXnXMXbXfX}.XX2XzXbXcXbXbXbXlXOXY.X.uXMXMXMXnXMXMXMXMXmXnXMXMXMXMXMXMXmXMXMXMXMX",
"MXMXMXMXMXMXbXbXMXMXMXMXMXbXfX'.:XfXbXMXmXbXMXMXbXsXx.b.lXMXnXMXMXMXMXMXMXMXMXMXMXMXMXMXMXMXMXMXMXMX",
"MXMXMXMXMXMXMXMXMXMXnXMXMXMXxX;XzXbXMXMXMXbXMXMXbXlX`.].lXMXMXMXMXMXMXMXMXMXMXMXMXMXMXMXMXMXMXMXMXMX",
"MXMXMXMXMXMXMXMXMXMXMXMXMXbXbXcXMXbXMXMXMXMXMXMXbXzX3X,XzXMXMXMXMXMXMXMXMXMXMXMXMXMXMXMXMXMXMXMXMXMX"
};
